<svg xmlns="http://www.w3.org/2000/svg" xmlns:xlink="http://www.w3.org/1999/xlink" width="213" zoomAndPan="magnify" viewBox="0 0 159.75 66" height="88" preserveAspectRatio="xMidYMid meet" version="1.0"><defs><g/><clipPath id="a43dc835c6"><path d="M 110.5 22.121094 L 159.15625 22.121094 L 159.15625 59.214844 L 110.5 59.214844 Z M 110.5 22.121094 " clip-rule="nonzero"/></clipPath><clipPath id="23adbfa212"><rect x="0" width="116" y="0" height="42"/></clipPath><clipPath id="9aa2ca2b3f"><path d="M 0.648438 3 L 8 3 L 8 14 L 0.648438 14 Z M 0.648438 3 " clip-rule="nonzero"/></clipPath><clipPath id="fa1bc8782b"><rect x="0" width="9" y="0" height="18"/></clipPath></defs><g clip-path="url(#a43dc835c6)"><path fill="#38b6ff" d="M 159.269531 30.785156 L 152.457031 22.121094 L 145.394531 30.785156 L 148.886719 30.785156 C 148.828125 31.070312 148.765625 31.359375 148.699219 31.652344 C 148.433594 32.796875 148.09375 33.9375 147.691406 35.046875 L 147.535156 35.46875 L 147.292969 36.09375 L 147.035156 36.714844 C 146.820312 37.203125 146.566406 37.777344 146.277344 38.34375 C 145.742188 39.421875 145.144531 40.480469 144.496094 41.484375 C 143.171875 43.527344 141.613281 45.429688 139.863281 47.132812 C 138.992188 47.980469 138.054688 48.800781 137.070312 49.574219 L 137.066406 49.578125 C 137 49.628906 136.933594 49.683594 136.867188 49.734375 C 136.691406 49.871094 136.511719 50.011719 136.324219 50.148438 L 135.671875 50.625 C 135.648438 50.644531 135.625 50.660156 135.601562 50.675781 C 135.589844 50.683594 135.582031 50.6875 135.570312 50.695312 L 134.699219 51.296875 L 133.71875 51.925781 C 133.691406 51.941406 133.664062 51.957031 133.640625 51.972656 C 133.632812 51.976562 133.621094 51.984375 133.609375 51.992188 L 132.804688 52.476562 C 132.78125 52.488281 132.757812 52.5 132.738281 52.515625 C 132.691406 52.542969 132.644531 52.570312 132.59375 52.597656 L 131.5625 53.175781 L 130.410156 53.773438 C 130.386719 53.789062 130.359375 53.800781 130.335938 53.8125 C 130.324219 53.816406 130.3125 53.824219 130.300781 53.828125 L 129.234375 54.339844 C 129.183594 54.367188 129.132812 54.386719 129.085938 54.410156 C 129.058594 54.421875 129.035156 54.429688 129.011719 54.441406 L 128.144531 54.828125 C 128.117188 54.839844 128.09375 54.851562 128.066406 54.863281 C 128.019531 54.882812 127.96875 54.90625 127.917969 54.925781 L 126.640625 55.449219 L 125.46875 55.890625 C 125.445312 55.898438 125.417969 55.910156 125.394531 55.917969 C 125.34375 55.9375 125.292969 55.957031 125.234375 55.976562 L 123.871094 56.445312 L 123.644531 56.515625 C 123.484375 56.5625 123.328125 56.613281 123.167969 56.664062 C 122.722656 56.800781 122.257812 56.945312 121.792969 57.070312 L 120.859375 57.332031 L 119.929688 57.566406 C 119.460938 57.691406 118.984375 57.796875 118.523438 57.898438 C 118.359375 57.933594 118.199219 57.96875 118.039062 58.003906 L 117.679688 58.085938 C 117.652344 58.089844 117.625 58.097656 117.59375 58.101562 C 117.582031 58.105469 117.570312 58.105469 117.554688 58.109375 L 116.132812 58.386719 C 116.003906 58.414062 115.878906 58.433594 115.753906 58.457031 C 115.71875 58.460938 115.679688 58.46875 115.644531 58.472656 L 114.199219 58.71875 L 112.386719 58.976562 L 112.265625 58.992188 C 111.683594 59.066406 111.09375 59.132812 110.5 59.195312 C 111.101562 59.207031 111.695312 59.214844 112.28125 59.210938 L 112.402344 59.214844 L 114.246094 59.183594 L 115.722656 59.121094 C 115.757812 59.121094 115.800781 59.117188 115.839844 59.117188 C 115.964844 59.113281 116.082031 59.105469 116.199219 59.097656 L 116.207031 59.097656 L 117.6875 58.996094 C 117.703125 58.996094 117.71875 58.996094 117.734375 58.992188 C 117.757812 58.992188 117.78125 58.992188 117.804688 58.988281 L 118.171875 58.953125 C 118.335938 58.9375 118.503906 58.921875 118.671875 58.90625 C 119.152344 58.863281 119.648438 58.816406 120.132812 58.75 L 120.136719 58.75 L 121.121094 58.632812 L 122.109375 58.484375 C 122.59375 58.417969 123.089844 58.328125 123.570312 58.242188 C 123.734375 58.210938 123.898438 58.183594 124.066406 58.152344 L 124.304688 58.109375 L 125.773438 57.804688 C 125.820312 57.796875 125.867188 57.785156 125.917969 57.773438 C 125.949219 57.765625 125.976562 57.757812 126.007812 57.75 L 127.285156 57.445312 L 128.679688 57.070312 C 128.726562 57.058594 128.773438 57.042969 128.824219 57.027344 C 128.855469 57.019531 128.882812 57.007812 128.914062 57 L 129.878906 56.707031 C 129.90625 56.699219 129.9375 56.691406 129.964844 56.683594 C 130.015625 56.667969 130.066406 56.652344 130.113281 56.636719 L 131.3125 56.234375 C 131.328125 56.230469 131.339844 56.226562 131.355469 56.21875 C 131.378906 56.210938 131.402344 56.203125 131.425781 56.195312 L 131.78125 56.066406 L 132.730469 55.714844 L 133.910156 55.238281 C 133.953125 55.21875 134 55.199219 134.046875 55.175781 C 134.078125 55.164062 134.105469 55.152344 134.132812 55.140625 L 135.066406 54.730469 C 135.082031 54.722656 135.097656 54.714844 135.113281 54.707031 C 135.132812 54.699219 135.152344 54.691406 135.175781 54.679688 L 136.328125 54.128906 L 137.351562 53.601562 C 137.363281 53.59375 137.378906 53.585938 137.394531 53.578125 C 137.414062 53.566406 137.4375 53.554688 137.457031 53.542969 L 138.25 53.105469 C 138.464844 52.988281 138.675781 52.863281 138.894531 52.730469 C 138.972656 52.683594 139.050781 52.636719 139.132812 52.589844 C 140.316406 51.878906 141.46875 51.101562 142.546875 50.289062 C 144.761719 48.617188 146.796875 46.6875 148.59375 44.554688 C 149.488281 43.492188 150.339844 42.355469 151.121094 41.179688 C 151.460938 40.675781 151.808594 40.121094 152.246094 39.386719 L 152.640625 38.691406 L 153.023438 37.992188 L 153.269531 37.515625 C 153.917969 36.253906 154.5 34.933594 154.996094 33.59375 C 155.257812 32.894531 155.484375 32.214844 155.6875 31.523438 L 155.765625 31.257812 L 155.839844 30.988281 C 155.859375 30.921875 155.875 30.855469 155.894531 30.785156 L 159.269531 30.785156 " fill-opacity="1" fill-rule="nonzero"/></g><g transform="matrix(1, 0, 0, 1, 12, 12)"><g clip-path="url(#23adbfa212)"><g fill="#004aad" fill-opacity="1"><g transform="translate(0.247681, 32.626383)"><g><path d="M 17.25 -17.25 L 17.25 -13.867188 C 15.800781 -16.179688 13.351562 -17.664062 10.28125 -17.664062 C 5.417969 -17.664062 1.378906 -13.730469 1.378906 -8.625 C 1.378906 -3.519531 5.417969 0.414062 10.28125 0.414062 C 13.351562 0.414062 15.800781 -1.070312 17.25 -3.382812 L 17.25 0 L 19.527344 0 L 19.527344 -17.25 Z M 10.453125 -1.792969 C 6.625 -1.792969 3.65625 -4.796875 3.65625 -8.625 C 3.65625 -12.453125 6.625 -15.457031 10.453125 -15.457031 C 14.28125 -15.457031 17.25 -12.453125 17.25 -8.625 C 17.25 -4.796875 14.28125 -1.792969 10.453125 -1.792969 Z M 10.453125 -1.792969 "/></g></g></g><g fill="#004aad" fill-opacity="1"><g transform="translate(22.189379, 32.626383)"><g><path d="M 3.554688 -20.90625 C 4.484375 -20.90625 5.210938 -21.664062 5.210938 -22.5625 C 5.210938 -23.460938 4.484375 -24.21875 3.554688 -24.21875 C 2.621094 -24.21875 1.898438 -23.460938 1.898438 -22.5625 C 1.898438 -21.664062 2.621094 -20.90625 3.554688 -20.90625 Z M 2.414062 0 L 4.691406 0 L 4.691406 -17.25 L 2.414062 -17.25 Z M 2.414062 0 "/></g></g></g><g fill="#004aad" fill-opacity="1"><g transform="translate(29.296279, 32.626383)"><g><path d="M 4.691406 -14.386719 L 4.691406 -17.25 L 2.414062 -17.25 L 2.414062 0 L 4.691406 0 L 4.691406 -9.589844 C 4.691406 -13.867188 7.382812 -15.316406 10.144531 -15.316406 L 10.144531 -17.527344 C 7.933594 -17.527344 5.898438 -16.800781 4.691406 -14.386719 Z M 4.691406 -14.386719 "/></g></g></g><g fill="#004aad" fill-opacity="1"><g transform="translate(40.129125, 32.626383)"><g><path d="M 2.414062 0 L 4.691406 0 L 4.691406 -25.183594 L 2.414062 -25.183594 Z M 2.414062 0 "/></g></g></g><g fill="#004aad" fill-opacity="1"><g transform="translate(47.236028, 32.626383)"><g><path d="M 3.554688 -20.90625 C 4.484375 -20.90625 5.210938 -21.664062 5.210938 -22.5625 C 5.210938 -23.460938 4.484375 -24.21875 3.554688 -24.21875 C 2.621094 -24.21875 1.898438 -23.460938 1.898438 -22.5625 C 1.898438 -21.664062 2.621094 -20.90625 3.554688 -20.90625 Z M 2.414062 0 L 4.691406 0 L 4.691406 -17.25 L 2.414062 -17.25 Z M 2.414062 0 "/></g></g></g><g fill="#004aad" fill-opacity="1"><g transform="translate(54.342925, 32.626383)"><g><path d="M 11.039062 -22.355469 L 11.039062 -24.5625 C 6.382812 -24.910156 3.796875 -22.425781 3.796875 -17.941406 L 3.796875 -17.25 L 0.863281 -17.25 L 0.863281 -15.042969 L 3.796875 -15.042969 L 3.796875 0 L 6.070312 0 L 6.070312 -15.042969 L 11.039062 -15.042969 L 11.039062 -17.25 L 6.070312 -17.25 L 6.070312 -17.941406 C 6.070312 -21.25 7.695312 -22.632812 11.039062 -22.355469 Z M 11.039062 -22.355469 "/></g></g></g><g fill="#004aad" fill-opacity="1"><g transform="translate(66.072764, 32.626383)"><g><path d="M 11.558594 -15.042969 L 11.558594 -17.25 L 6.589844 -17.25 L 6.589844 -22.078125 L 4.3125 -21.390625 L 4.3125 -17.25 L 0.691406 -17.25 L 0.691406 -15.042969 L 4.3125 -15.042969 L 4.3125 -4.589844 C 4.3125 -0.449219 6.898438 0.691406 11.558594 0 L 11.558594 -2 C 8.210938 -1.863281 6.589844 -1.621094 6.589844 -4.589844 L 6.589844 -15.042969 Z M 11.558594 -15.042969 "/></g></g></g><g fill="#004aad" fill-opacity="1"><g transform="translate(79.010082, 32.626383)"><g/></g></g><g fill="#38b6ff" fill-opacity="1"><g transform="translate(87.636057, 32.626383)"><g><path d="M 13.867188 0.414062 C 20.90625 0.414062 26.359375 -5.175781 26.359375 -12.074219 C 26.359375 -18.976562 20.90625 -24.5625 13.867188 -24.5625 C 6.832031 -24.5625 1.378906 -18.976562 1.378906 -12.074219 C 1.378906 -5.175781 6.832031 0.414062 13.867188 0.414062 Z M 13.867188 -1.933594 C 8.140625 -1.933594 3.796875 -6.453125 3.796875 -12.074219 C 3.796875 -17.699219 8.140625 -22.21875 13.867188 -22.21875 C 19.597656 -22.21875 23.941406 -17.699219 23.941406 -12.074219 C 23.941406 -6.453125 19.597656 -1.933594 13.867188 -1.933594 Z M 13.867188 -1.933594 "/></g></g></g></g></g><g transform="matrix(1, 0, 0, 1, 123, 36)"><g clip-path="url(#fa1bc8782b)"><g clip-path="url(#9aa2ca2b3f)"><g fill="#38b6ff" fill-opacity="1"><g transform="translate(0.673303, 13.890517)"><g><path d="M 0.382812 0 L 6.996094 0 L 6.996094 -1.878906 L 3.277344 -1.878906 L 5.214844 -3.816406 C 6.148438 -4.75 6.839844 -5.78125 6.839844 -6.980469 C 6.839844 -8.960938 5.273438 -10.089844 3.574219 -10.089844 C 2.234375 -10.089844 0.945312 -9.414062 0.3125 -8 L 1.949219 -7.039062 C 2.277344 -7.746094 2.839844 -8.199219 3.605469 -8.199219 C 4.351562 -8.199219 4.890625 -7.703125 4.890625 -6.910156 C 4.890625 -6.246094 4.394531 -5.597656 3.757812 -4.933594 L 0.382812 -1.457031 Z M 0.382812 0 "/></g></g></g></g></g></g></svg>